<?xml version="1.0" encoding="UTF-8" standalone="no"?>
<svg
   width="166"
   height="166"
   viewBox="0 0 166 166"
   fill="none"
   version="1.1"
   id="svg229"
   sodipodi:docname="favicon.svg"
   inkscape:version="1.2.2 (b0a8486541, 2022-12-01)"
   xmlns:inkscape="http://www.inkscape.org/namespaces/inkscape"
   xmlns:sodipodi="http://sodipodi.sourceforge.net/DTD/sodipodi-0.dtd"
   xmlns="http://www.w3.org/2000/svg"
   xmlns:svg="http://www.w3.org/2000/svg">
  <defs
     id="defs233">
    <clipPath
       clipPathUnits="userSpaceOnUse"
       id="clipPath253">
      <path
         d="M 0,174.5 H 172 V 0 H 0 Z"
         id="path251" />
    </clipPath>
  </defs>
  <sodipodi:namedview
     id="namedview231"
     pagecolor="#ffffff"
     bordercolor="#000000"
     borderopacity="0.25"
     inkscape:showpageshadow="2"
     inkscape:pageopacity="0.0"
     inkscape:pagecheckerboard="0"
     inkscape:deskcolor="#d1d1d1"
     showgrid="false"
     inkscape:zoom="4.7289157"
     inkscape:cx="78.559235"
     inkscape:cy="83.422929"
     inkscape:window-width="1920"
     inkscape:window-height="1011"
     inkscape:window-x="0"
     inkscape:window-y="0"
     inkscape:window-maximized="1"
     inkscape:current-layer="svg229" />
  <g
     id="g247"
     transform="matrix(1.1778752,0,0,-1.1778752,-18.297418,185.76925)"
     style="fill:#000000">
    <g
       id="g249"
       clip-path="url(#clipPath253)"
       style="fill:#000000">
      <g
         id="g255"
         transform="translate(110.51,100.1657)"
         style="fill:#000000">
        <path
           d="M 0,0 C -0.934,0.322 -1.794,0.284 -2.653,0.255 -3.743,0.219 -4.822,0.146 -5.875,0.611 -6.256,0.779 -6.764,0.708 -7.208,0.674 -7.807,0.628 -8.4,0.508 -8.997,0.427 c -1.081,-0.146 -2.217,-0.125 -3.235,-0.46 -2.713,-0.893 -5.383,-1.919 -8.051,-2.943 -0.379,-0.146 -0.775,-0.522 -0.941,-0.891 -0.383,-0.853 -0.643,-1.764 -0.929,-2.659 -0.278,-0.872 -0.026,-1.641 0.734,-2.17 0.896,-0.623 1.932,-0.946 2.992,-0.779 1.779,0.279 3.551,0.642 5.295,1.09 1.949,0.499 3.686,1.487 5.357,2.597 2.161,1.436 4.355,2.823 6.517,4.257 C -0.74,-1.187 -0.194,-0.821 0,0 m -63.731,-34.316 c 0.388,1.147 0.704,2.023 0.982,2.911 1.564,4.991 3.119,9.985 4.673,14.979 0.078,0.25 0.152,0.511 0.162,0.769 0.022,0.565 -0.287,0.828 -0.854,0.75 -0.184,-0.026 -0.371,-0.086 -0.538,-0.167 -2.268,-1.094 -4.548,-2.165 -6.791,-3.308 -1.069,-0.544 -2.057,-1.21 -3.278,-1.451 -0.866,-0.17 -1.685,-0.576 -2.469,-0.857 0.105,-0.693 0.209,-1.275 0.28,-1.862 0.077,-0.634 0.014,-1.342 0.954,-1.384 0.088,-0.004 0.214,-0.113 0.251,-0.203 0.319,-0.786 1.049,-1.159 1.646,-1.666 0.723,-0.615 0.728,-0.716 0.139,-1.542 -0.047,-0.066 -0.006,-0.195 -0.006,-0.272 0.451,-0.306 0.926,0.629 1.206,0.1 -0.206,-1.189 -0.383,-2.205 -0.575,-3.314 0.753,0.107 0.999,-0.301 1.188,-0.838 0.193,-0.548 0.462,-1.07 0.733,-1.683 0.378,0.234 0.618,0.382 0.829,0.513 0.445,-0.447 0.858,-0.862 1.468,-1.475 m 43.832,60.862 c -0.218,0.174 -0.349,0.291 -0.492,0.391 -1.588,1.106 -3.417,1.555 -5.282,1.853 -2.452,0.393 -4.911,0.748 -7.376,1.047 -0.42,0.051 -0.893,-0.237 -1.323,-0.414 -0.19,-0.078 -0.333,-0.27 -0.526,-0.436 -0.489,0.355 -0.934,0.677 -1.486,1.076 -0.114,-0.514 -0.183,-0.969 -0.776,-1.014 -0.162,-0.013 -0.355,-0.365 -0.434,-0.595 -0.453,-1.316 -0.914,-2.631 -1.292,-3.97 -0.18,-0.638 -0.234,-1.325 -0.257,-1.993 -0.035,-1.054 0.002,-2.11 0.016,-3.165 0.003,-0.289 0.032,-0.578 0.051,-0.881 0.341,0 0.603,-0.033 0.855,0.005 2.046,0.311 4.093,0.615 6.134,0.961 1.443,0.245 2.905,0.452 4.309,0.851 3.981,1.133 7.937,2.356 11.902,3.544 0.233,0.07 0.464,0.146 0.861,0.271 -0.444,0.325 -0.713,0.654 -1.042,0.734 -0.605,0.147 -0.954,0.502 -1.291,0.982 -0.126,0.179 -0.518,0.255 -0.777,0.234 -0.285,-0.023 -0.554,-0.218 -0.835,-0.327 -0.703,-0.272 -1.422,-0.406 -2.194,-0.265 -0.12,0.94 0.683,0.841 1.255,1.111 M -71.783,6.707 c 1.042,0.242 2.1,0.186 2.277,1.51 0.014,0.108 0.21,0.21 0.34,0.282 0.46,0.258 0.908,0.547 1.394,0.742 1.826,0.73 3.687,1.33 5.667,1.505 0.554,0.05 1.106,0.226 1.637,0.409 2.103,0.727 4.18,1.534 6.301,2.204 1.378,0.436 2.121,1.357 2.514,2.656 0.141,0.468 0.226,0.954 0.332,1.432 0.739,3.311 1.464,6.625 2.706,9.798 0.158,0.404 0.248,0.835 0.325,1.098 -0.572,0.408 -1.028,0.734 -1.558,1.112 -0.124,-0.334 -0.243,-0.657 -0.353,-0.953 -2.839,-1.175 -5.646,-2.336 -8.628,-3.57 -0.051,-0.089 -0.218,-0.376 -0.368,-0.635 0.145,-0.196 0.267,-0.359 0.388,-0.521 -0.735,-0.566 -0.737,-0.551 -1.746,-0.693 -0.546,-0.078 -0.854,-0.454 -0.975,-0.974 -0.081,-0.348 -0.126,-0.705 -0.217,-1.224 -0.203,0.422 -0.328,0.68 -0.562,1.163 -0.231,-0.668 -0.38,-1.1 -0.547,-1.585 -0.189,0.214 -0.321,0.363 -0.495,0.561 -0.319,-0.284 -0.591,-0.527 -0.878,-0.783 0.241,-0.224 0.437,-0.406 0.667,-0.62 -0.389,-0.414 -0.721,-0.77 -1.055,-1.123 -1.816,-1.918 -3.482,-3.945 -4.847,-6.222 -0.651,-1.085 -1.465,-2.074 -2.216,-3.099 -0.078,-0.106 -0.235,-0.156 -0.349,-0.228 -0.188,0.23 -0.339,0.415 -0.535,0.655 -0.276,-0.319 -0.491,-0.568 -0.707,-0.819 0.359,-0.491 0.622,-1.053 1.38,-0.842 0.035,-0.402 0.064,-0.733 0.108,-1.236 m 18.288,-1.498 c -0.426,-0.042 -0.653,-0.026 -0.855,-0.09 -1.402,-0.44 -2.818,-0.845 -4.192,-1.362 -1.492,-0.563 -3.023,-0.908 -4.587,-1.182 -1.032,-0.18 -2.038,-0.507 -3.055,-0.77 -0.764,-0.199 -1.524,-0.42 -2.295,-0.588 -0.206,-0.045 -0.446,0.069 -0.671,0.11 -0.014,0.077 -0.028,0.153 -0.041,0.23 0.54,0.317 1.05,0.714 1.628,0.934 0.984,0.373 2.003,0.661 3.02,0.937 1.926,0.523 3.862,1.011 5.793,1.517 0.379,0.099 0.753,0.211 1.13,0.317 -0.021,0.084 -0.041,0.167 -0.062,0.25 -0.873,-0.185 -1.744,-0.379 -2.619,-0.553 -1.033,-0.206 -2.066,-0.416 -3.106,-0.583 -0.66,-0.106 -1.13,0.138 -1.445,0.796 -0.454,0.947 -0.899,1.142 -1.915,0.905 -0.693,-0.161 -1.361,-0.43 -2.046,-0.633 -0.177,-0.053 -0.375,-0.037 -0.563,-0.053 -0.024,0.058 -0.048,0.115 -0.073,0.173 0.301,0.259 0.602,0.518 1.018,0.876 -1.039,-0.13 -1.953,-0.243 -2.68,-0.334 -0.316,-0.831 -0.534,-1.547 -0.853,-2.215 -0.456,-0.951 -0.983,-1.864 -1.139,-2.935 -0.124,-0.85 -0.245,-1.709 -0.485,-2.531 -0.308,-1.057 -0.734,-2.081 -1.169,-3.288 0.467,-1.144 0.86,-2.503 0.029,-3.953 0.69,-0.75 0.714,-1.724 0.674,-2.751 0.23,0.032 0.386,0.02 0.51,0.077 2.28,1.039 4.685,1.662 7.13,2.153 2.997,0.602 5.942,1.387 8.846,2.346 1.093,0.361 1.655,1.026 1.903,2.118 0.585,2.573 1.243,5.129 1.836,7.7 0.167,0.723 0.211,1.475 0.334,2.382 m 15.883,-49.641 c 0.105,1.356 0.123,2.681 0.326,3.977 0.451,2.866 0.982,5.72 1.503,8.574 0.636,3.484 1.439,6.945 1.905,10.451 0.533,4.005 1.174,7.976 2.181,11.889 0.131,0.508 0.234,1.033 0.263,1.555 0.069,1.259 -0.37,1.695 -1.617,1.449 -0.914,-0.181 -1.795,-0.548 -2.673,-0.879 -1.268,-0.476 -2.498,-1.067 -3.786,-1.476 -1.506,-0.478 -3.06,-0.807 -4.59,-1.211 -1.253,-0.332 -2.193,-0.96 -2.305,-2.407 -0.034,-0.447 -0.195,-0.883 -0.271,-1.329 -0.538,-3.159 -1.035,-6.325 -1.616,-9.475 -0.307,-1.665 -0.787,-3.296 -1.138,-4.953 -0.649,-3.059 -1.267,-6.125 -1.885,-9.19 -0.154,-0.761 -0.257,-1.533 -0.382,-2.289 0.662,-0.304 1.214,-0.548 1.756,-0.811 0.196,-0.095 0.425,-0.197 0.543,-0.363 0.495,-0.694 1.069,-1.173 1.995,-0.981 0.096,0.02 0.224,-0.035 0.318,-0.088 1.806,-1.015 3.838,-1.306 5.801,-1.819 0.544,-0.142 1.15,-0.24 1.585,-0.555 0.691,-0.5 1.313,-0.44 2.087,-0.069 m 33.321,12.364 0.024,-0.023 c 0.763,0.243 1.145,0.85 1.532,1.499 0.942,1.579 1.883,3.153 2.412,5.017 -0.333,0.083 -0.692,0.166 -1.048,0.262 -1.198,0.322 -2.435,0.548 -3.585,0.994 -2.283,0.887 -4.526,1.876 -6.771,2.858 -3.453,1.51 -6.891,3.057 -10.342,4.571 -1.013,0.445 -1.478,0.201 -1.694,-0.883 -0.2,-0.997 -0.373,-2.003 -0.488,-3.013 -0.376,-3.294 -0.885,-6.583 -1.034,-9.888 -0.171,-3.8 -0.017,-7.616 0.012,-11.425 0.003,-0.357 0.118,-0.713 0.184,-1.085 1.596,-0.124 3.004,0.009 4.291,0.925 0.465,0.33 1.133,0.633 1.66,0.565 1.319,-0.168 2.509,0.174 3.799,0.484 -0.143,0.77 0.289,1.128 0.806,1.498 0.537,0.385 1.397,0.511 1.362,1.452 -0.002,0.053 0.083,0.129 0.144,0.163 1.195,0.674 2.065,1.912 3.578,2.044 0.2,0.018 0.381,0.223 0.576,0.332 0.616,0.342 1.203,0.859 1.86,0.974 0.824,0.144 1.134,0.646 1.42,1.26 0.12,0.257 0.151,0.556 0.227,0.85 0.852,-0.369 0.858,-0.367 1.392,0.457 -0.108,0.038 -0.213,0.075 -0.317,0.112 m -62.03,56.357 c -0.141,-0.214 -0.265,-0.442 -0.427,-0.639 -0.262,-0.318 -0.484,-0.639 -0.454,-1.274 0.397,0.394 0.669,0.664 1.068,1.06 -0.058,-0.426 -0.095,-0.691 -0.155,-1.132 1.023,0.679 1.4,1.57 1.64,2.57 -0.251,-0.203 -0.501,-0.406 -0.752,-0.609 -0.056,0.04 -0.112,0.081 -0.169,0.121 0.186,0.383 0.309,0.817 0.569,1.141 1.15,1.436 2.453,2.506 4.512,2.037 1.107,-0.252 1.829,0.288 2.196,1.426 -0.669,0.183 -1.266,-0.743 -2.039,-0.138 0.155,0.137 0.257,0.303 0.351,0.299 0.784,-0.033 1.367,0.371 1.91,0.85 0.618,0.544 1.342,0.812 2.165,0.934 0.294,-0.374 0.583,-0.74 0.901,-1.144 0.23,0.183 0.406,0.316 0.574,0.458 0.057,0.048 0.108,0.111 0.139,0.178 0.282,0.615 1.22,0.277 1.452,1.072 0.172,0.59 0.754,0.917 1.377,1.152 0.18,-0.093 0.4,-0.169 0.572,-0.304 0.447,-0.354 0.875,-0.366 1.343,-0.038 0.78,0.549 1.672,0.68 2.595,0.594 0.732,-0.068 1.241,0.185 1.54,0.866 0.166,0.378 0.394,0.731 0.532,1.118 0.647,1.825 1.592,3.495 2.614,5.127 0.055,0.088 0.158,0.147 0.387,0.353 -0.057,-1.455 -1.079,-2.607 -0.709,-3.99 0.82,-0.112 1.157,0.517 1.596,0.932 0.382,0.36 0.696,0.792 1.055,1.178 0.151,0.162 0.325,0.384 0.515,0.414 1.022,0.166 1.478,0.961 1.998,1.698 0.3,0.425 0.611,0.842 1.072,1.214 -0.106,-0.497 -0.212,-0.993 -0.339,-1.586 0.746,0.097 1.082,0.539 1.415,0.972 0.597,0.778 1.172,1.572 1.781,2.34 0.347,0.438 0.753,0.822 1.429,1.02 0.01,-0.98 -0.59,-1.578 -1.014,-2.242 -0.416,-0.653 -0.871,-1.281 -1.245,-1.977 0.849,0.292 1.187,1.336 2.25,1.405 0.013,-0.234 0.095,-0.469 0.024,-0.639 -0.202,-0.485 -0.421,-0.974 -0.718,-1.404 -0.333,-0.484 -0.557,-0.943 -0.483,-1.564 0.08,-0.674 -0.34,-1.21 -0.673,-1.76 -0.294,-0.484 -0.674,-0.97 -0.419,-1.584 0.103,-0.248 0.333,-0.63 0.502,-0.629 0.538,0.005 1.176,-0.148 1.473,0.376 0.837,-0.275 1.619,-0.635 2.438,-0.772 0.775,-0.13 1.591,-0.491 2.412,0.044 0.253,-0.346 0.484,-0.663 0.804,-1.101 0.03,0.444 0.05,0.741 0.077,1.138 1.269,-0.245 2.368,-0.719 3.484,-1.136 0.812,-0.304 1.624,-0.609 2.428,-0.934 0.902,-0.365 1.763,-0.893 2.698,-1.101 1.463,-0.327 2.488,-1.107 3.291,-2.328 0.227,-0.346 0.701,-0.531 1.069,-0.794 -0.274,-1.039 -0.557,-2.117 -0.87,-3.306 0.325,0.072 0.646,0.117 0.951,0.214 4.037,1.281 8.166,2.103 12.373,2.599 2.294,0.27 4.46,1.098 6.647,1.809 1.754,0.57 3.504,1.155 5.274,1.672 0.644,0.188 1.339,0.206 2.014,0.278 0.165,0.017 0.34,-0.061 0.729,-0.14 -0.385,-0.23 -0.585,-0.36 -0.794,-0.473 C 11.301,29.474 9.938,28.753 8.592,28.001 8.298,27.836 8.062,27.565 7.8,27.343 c 0.042,-0.08 0.083,-0.16 0.125,-0.241 0.974,0.212 1.954,0.4 2.92,0.643 1.57,0.395 3.128,0.837 4.697,1.24 2.195,0.563 4.411,0.949 6.736,0.739 -0.036,-0.151 -0.048,-0.254 -0.086,-0.346 -0.041,-0.097 -0.108,-0.183 -0.161,-0.27 0.071,-0.063 0.122,-0.148 0.175,-0.149 0.782,-0.022 1.565,-0.032 2.348,-0.046 0.601,-0.01 1.202,-0.022 1.803,-0.032 0.377,-0.006 0.753,0 1.129,-0.018 0.364,-0.017 0.651,-0.146 0.758,-0.547 0.111,-0.415 -0.008,-0.757 -0.327,-1.004 -0.236,-0.182 -0.521,-0.305 -0.791,-0.438 -2.771,-1.362 -5.507,-2.8 -8.327,-4.051 -1.748,-0.775 -3.623,-1.263 -5.44,-1.881 -0.299,-0.101 -0.598,-0.202 -0.882,-0.348 2.015,0.155 3.882,0.849 5.775,1.479 1.459,0.487 2.972,0.815 4.466,1.194 0.189,0.048 0.407,-0.023 0.702,-0.046 -0.213,-0.673 -0.725,-0.888 -1.187,-1.034 -1.147,-0.362 -2.315,-0.66 -3.485,-0.941 C 17.469,20.939 16.182,20.669 14.894,20.405 12.974,20.01 11.042,19.672 9.13,19.241 7.627,18.902 6.114,18.554 4.663,18.044 1.166,16.816 -2.43,16.006 -6.052,15.265 c -2.1,-0.429 -4.173,-0.999 -6.252,-1.529 -2.821,-0.719 -5.658,-1.306 -8.593,-1.243 -1.649,0.035 -3.177,-0.588 -4.745,-0.963 -5.024,-1.199 -10.033,-2.463 -15.188,-3.737 -0.841,-3.041 -1.711,-6.189 -2.583,-9.342 0.357,-0.389 0.715,-0.129 1.052,-0.037 2.727,0.744 5.451,1.495 8.176,2.247 1.78,0.491 3.558,0.988 5.338,1.481 0.182,0.05 0.366,0.131 0.549,0.131 2.014,0.005 3.746,1.101 5.669,1.457 1.926,0.356 3.865,0.669 5.77,1.119 4.546,1.074 9.07,2.237 13.613,3.324 2.092,0.5 4.201,0.919 6.383,0.597 0.668,-0.098 1.328,0.02 1.982,0.302 1.847,0.797 3.78,1.299 5.794,1.454 0.3,0.023 0.598,0.077 0.895,0.131 0.776,0.14 1.546,0.193 2.346,0.177 1.39,-0.027 2.782,0.155 4.175,0.219 1.28,0.058 2.563,0.117 3.842,0.09 0.45,-0.01 0.893,-0.277 1.487,-0.476 C 23.256,10.056 22.956,9.6 22.597,9.055 23.005,8.734 23.373,8.432 23.755,8.147 24.167,7.84 24.205,7.468 23.94,7.066 23.755,6.784 23.542,6.511 23.301,6.276 21.645,4.665 19.847,3.275 17.689,2.357 15.826,1.565 14.284,0.32 13.013,-1.286 11.179,-3.606 8.974,-5.542 6.542,-7.259 6.581,-7.472 6.683,-7.712 6.646,-7.93 6.613,-8.13 6.43,-8.306 6.282,-8.541 6.097,-8.27 5.954,-8.062 5.764,-7.785 c -4.005,-2.761 -8.726,-4.105 -12.796,-6.731 0.179,-0.696 0.672,-0.889 1.193,-0.988 3.223,-0.615 6.45,-1.203 9.672,-1.823 0.625,-0.12 1.1,-0.003 1.44,0.904 0.147,-0.57 0.212,-0.824 0.29,-1.125 2.964,-0.503 5.92,-1.037 8.888,-1.499 3.311,-0.515 6.61,-1.139 9.993,-1.024 2.274,0.077 4.506,0.399 6.699,0.962 1.732,0.444 3.478,0.723 5.258,0.618 1.582,-0.093 3.06,0.195 4.522,0.781 0.844,0.338 0.941,0.516 1.817,0.001 0.074,-0.626 -0.433,-0.828 -0.84,-1.039 -2.208,-1.149 -4.451,-2.212 -6.895,-2.787 -0.714,-0.168 -1.406,-0.43 -2.109,-0.65 0.006,-0.088 0.012,-0.177 0.018,-0.266 0.221,-0.034 0.459,-0.136 0.661,-0.089 0.88,0.207 1.747,0.469 2.625,0.686 0.394,0.097 0.806,0.205 1.203,0.184 0.769,-0.042 1.055,-0.464 0.91,-1.216 -0.14,-0.723 -0.654,-1.179 -1.199,-1.591 -1.694,-1.28 -3.589,-2.012 -5.72,-2.203 -2.138,-0.191 -4.267,-0.472 -6.396,-0.748 -0.332,-0.043 -0.641,-0.263 -0.946,-0.396 0.156,-0.795 0.655,-0.783 1.156,-0.81 1.317,-0.072 2.633,-0.16 3.949,-0.25 0.221,-0.015 0.438,-0.073 0.734,-0.124 -0.209,-0.56 -0.587,-0.759 -1.092,-0.851 -3.698,-0.667 -7.38,-0.93 -11.113,-0.118 -2.351,0.511 -4.766,0.73 -7.141,1.142 -0.998,0.172 -1.977,0.476 -2.949,0.771 -1.259,0.381 -2.503,0.812 -3.788,1.233 -0.638,-0.865 -1.252,-1.698 -1.942,-2.633 -0.318,1.073 0.623,1.425 0.838,2.052 -0.02,0.121 -0.007,0.216 -0.048,0.265 -0.355,0.424 -0.665,1.013 -1.353,0.753 -0.663,-0.251 -0.933,-0.837 -0.984,-1.519 -0.034,-0.451 -0.028,-0.906 -0.067,-1.356 -0.062,-0.706 -0.213,-1.333 -1.101,-1.456 -0.196,-0.027 -0.428,-0.303 -0.518,-0.518 -0.562,-1.329 -0.735,-2.676 -0.063,-3.988 -1.311,-0.911 -2.605,-1.837 -3.93,-2.716 -0.414,-0.275 -0.91,-0.427 -1.411,-0.571 -0.64,-0.761 -0.503,-1.696 -0.373,-2.653 -0.175,-0.094 -0.329,-0.217 -0.503,-0.263 -0.554,-0.149 -0.885,-0.461 -1.057,-1.034 -0.124,-0.415 -0.344,-0.871 -0.992,-0.584 -0.114,0.05 -0.385,-0.253 -0.707,-0.48 -0.087,0.699 -0.167,1.342 -0.25,2.016 -1.019,0.504 -2.058,0.274 -3.222,0.294 0.28,-1.71 1.161,-2.931 2.368,-4.222 -0.501,0 -0.815,-0.035 -1.117,0.007 -0.806,0.112 -1.49,-0.035 -2.01,-0.727 -0.151,-0.202 -0.394,-0.351 -0.624,-0.469 -0.055,-0.028 -0.225,0.171 -0.342,0.265 0.029,0.062 0.058,0.123 0.087,0.185 -0.035,-0.055 -0.07,-0.111 -0.105,-0.167 -0.378,-0.131 -0.755,-0.262 -1.226,-0.426 -0.058,0.434 -0.118,0.883 -0.178,1.325 -1.487,-0.065 -2.648,-1.182 -2.833,-2.738 0.922,0.079 1.393,1.111 2.334,1.057 -0.949,-0.905 -1.601,-2.303 -3.298,-1.936 l 0.022,-0.022 c -0.018,0.149 -0.035,0.297 -0.06,0.519 -0.327,0.06 -0.676,0.124 -0.99,0.182 -0.245,0.467 0.081,0.687 0.283,0.933 1.01,1.237 1.736,2.638 2.423,4.087 -0.507,-0.096 -1.007,-0.124 -1.449,-0.3 -0.287,-0.114 -0.558,-0.407 -0.714,-0.687 -0.547,-0.984 -1.041,-1.998 -1.555,-3 -0.162,-0.316 -0.14,-0.865 -0.629,-0.813 -0.538,0.057 -0.603,0.591 -0.669,1.035 -0.031,0.214 -0.005,0.436 -0.005,0.708 -0.489,-0.017 -0.764,-0.263 -0.726,-0.685 0.059,-0.656 -0.295,-1.507 0.816,-1.841 -0.553,-0.368 -0.663,-0.864 -0.587,-1.442 0.401,-3.025 0.738,-6.06 1.496,-9.027 0.149,-0.583 0.305,-1.181 0.323,-1.775 0.023,-0.797 0.27,-1.5 0.483,-2.253 0.43,-1.524 0.714,-3.14 0.158,-4.91 -1.577,1.107 -2.822,2.33 -3.608,4.052 0.245,-1.205 0.491,-2.41 0.736,-3.616 -0.081,-0.03 -0.162,-0.06 -0.244,-0.091 -2.475,2.566 -3.909,5.769 -5.374,9.182 -0.263,-1.899 0.212,-3.498 0.765,-5.215 -1.248,0.182 -1.782,0.969 -2.253,1.808 -0.727,1.296 -1.097,2.719 -1.415,4.157 -0.215,0.971 -0.22,0.97 -0.928,1.778 -0.216,-1.539 -0.419,-2.982 -0.658,-4.68 -0.627,0.86 -0.873,1.607 -1.112,2.34 -0.515,1.572 -1.035,3.148 -1.436,4.751 -0.177,0.71 -0.104,1.492 -0.087,2.239 0.028,1.261 0.37,2.528 -0.137,3.813 -1.511,-0.567 -3.043,-0.273 -4.571,-0.054 -0.25,0.036 -0.572,0.123 -0.707,0.302 -0.459,0.609 -1.195,0.648 -1.804,0.864 -0.374,0.133 -0.911,-0.192 -1.375,-0.312 l 0.021,-0.025 c 0.048,0.137 0.097,0.275 0.179,0.51 -1.047,0.161 -2.066,0.718 -3.095,-0.251 -0.27,0.317 -0.503,0.591 -0.736,0.865 -0.659,0.174 -1.406,-0.156 -2.111,0.294 0.423,0.577 0.938,0.193 1.361,0.223 0.469,0.034 0.951,-0.1 1.504,-0.171 0.11,0.349 0.239,0.757 0.372,1.178 -0.707,0.304 -2.458,0.233 -3.847,-0.211 -0.296,-1.224 -0.648,-2.49 -0.906,-3.775 -1.138,-5.662 -3.102,-11.019 -6.005,-16.009 -0.845,-1.453 -1.906,-2.788 -2.941,-4.12 -0.407,-0.524 -0.99,-0.927 -1.538,-1.322 -0.448,-0.324 -0.96,-0.566 -1.681,-0.533 0.228,0.949 0.715,1.642 1.187,2.338 1.013,1.493 2.215,2.866 2.872,4.583 0.269,0.702 0.515,1.403 0.432,2.208 -0.795,-1.197 -1.506,-2.372 -2.323,-3.469 -0.934,-1.256 -2.258,-2.143 -3.272,-2.303 0.108,0.237 0.192,0.425 0.279,0.611 0.709,1.537 1.453,3.059 2.11,4.617 0.209,0.498 0.19,1.092 0.31,1.868 -1.375,-0.912 -1.906,-2.286 -3.026,-3.349 -0.04,0.328 -0.119,0.508 -0.067,0.634 0.313,0.768 0.663,1.521 0.987,2.285 0.158,0.37 0.286,0.753 0.427,1.13 -0.073,0.042 -0.145,0.084 -0.217,0.127 -0.525,-0.659 -1.068,-1.304 -1.568,-1.982 -0.402,-0.545 -0.743,-1.135 -1.128,-1.694 -0.792,-1.15 -1.578,-2.302 -2.906,-2.936 -0.319,-0.153 -0.567,-0.455 -0.954,-0.777 -0.098,1.182 0.683,1.998 0.779,3.08 -2.039,-2.898 -4.743,-4.818 -7.821,-6.263 -0.441,-0.207 -0.889,-0.424 -1.357,-0.541 -0.409,-0.101 -0.851,-0.068 -1.557,-0.112 0.371,0.568 0.58,0.904 0.805,1.229 2.015,2.906 4.118,5.754 6.03,8.726 3.661,5.689 6.63,11.745 9.156,18.018 0.534,1.328 1.024,2.673 1.531,4.012 0.063,0.167 0.103,0.343 0.161,0.54 -0.746,0.108 -1.419,0.205 -2.022,0.292 -0.057,0.269 -0.04,0.542 -0.167,0.693 -0.161,0.19 -0.433,0.292 -0.669,0.409 -0.924,0.459 -1.755,1.024 -2.336,1.905 -0.1,0.151 -0.265,0.258 -0.465,0.447 -0.223,-0.272 -0.418,-0.511 -0.635,-0.775 -0.113,0.1 -0.253,0.165 -0.256,0.238 -0.009,0.181 0.035,0.366 0.074,0.546 0.136,0.624 0.138,0.623 -0.209,1.402 -0.482,0.112 -0.979,0.226 -1.571,0.362 0.18,0.299 0.287,0.475 0.354,0.586 -0.212,0.603 -0.278,1.268 -0.635,1.681 -0.426,0.493 -0.604,1.012 -0.752,1.595 -0.042,0.164 -0.177,0.393 -0.312,0.43 -0.774,0.208 -0.94,1.02 -1.494,1.449 -0.353,0.274 -0.267,0.666 0.085,0.957 0.512,-0.051 0.491,-0.888 1.231,-0.74 -0.356,0.682 -0.637,1.267 -1.301,1.735 -0.486,0.343 -0.68,1.112 -0.977,1.705 -0.075,0.149 -0.046,0.351 -0.075,0.62 -0.864,-0.089 -1.669,-0.173 -2.473,-0.256 -0.032,0.071 -0.065,0.142 -0.097,0.213 0.554,0.408 1.082,0.859 1.67,1.211 0.44,0.263 0.595,0.538 0.319,1.135 -0.384,-0.026 -0.817,-0.1 -1.245,-0.078 -1.75,0.089 -3.338,-0.494 -4.926,-1.109 -0.92,-0.357 -1.089,-0.354 -2.191,-0.194 0.905,0.602 1.678,1.117 2.451,1.631 -0.026,0.071 -0.053,0.143 -0.079,0.214 h -8.104 c 0.108,0.523 0.439,0.613 0.73,0.71 1.716,0.57 3.429,1.148 5.158,1.677 0.941,0.288 1.851,0.603 2.665,1.182 0.486,0.346 1.023,0.633 1.562,0.893 0.64,0.309 1.302,0.56 1.809,1.096 0.101,0.107 0.326,0.099 0.555,0.16 0.083,0.973 -0.523,1.734 -0.969,2.557 0.321,0.288 0.756,0.498 0.849,0.811 0.103,0.344 -0.108,0.782 -0.195,1.242 -0.444,-0.078 -0.788,-0.138 -1.157,-0.203 0.146,0.647 0.146,0.647 0.711,1.294 -0.342,1.205 -0.125,2.385 0.169,3.627 0.251,1.063 0.054,2.237 0.025,3.361 -0.013,0.488 -0.153,0.976 -0.136,1.46 0.011,0.309 0.114,0.745 0.332,0.893 0.639,0.433 0.735,0.999 0.651,1.677 -0.013,0.106 0.031,0.219 0.055,0.369 0.245,-0.146 0.466,-0.277 0.689,-0.411 0.626,1.377 0.625,1.377 0.41,2.763 -0.121,0.781 -0.186,1.548 0.534,2.155 0.722,-0.45 -0.286,-1.01 0.173,-1.42 1.281,0.712 1.339,0.974 0.485,2.122 0.196,0.7 0.375,1.378 0.582,2.047 0.031,0.102 0.192,0.163 0.292,0.246 0.179,0.148 0.356,0.299 0.545,0.458 0.142,-0.15 0.292,-0.309 0.466,-0.493 0.091,0.096 0.22,0.169 0.224,0.249 0.012,0.213 0.018,0.449 -0.057,0.643 -0.407,1.045 -0.328,1.257 0.624,1.639 0.061,0.629 0.119,1.231 0.181,1.873 -0.071,0.027 -0.271,0.102 -0.648,0.243 0.614,0.593 1.14,1.101 1.618,1.563 0.052,0.096 0.093,0.142 0.083,0.161 -0.083,0.161 -0.176,0.318 -0.281,0.503 0.371,0.485 0.895,0.658 1.458,0.759 0.716,0.128 1.265,0.461 1.516,1.249 -0.234,0.218 -0.473,0.44 -0.782,0.726 0.412,0.379 0.788,0.724 1.206,1.109 0.06,-0.05 0.156,-0.131 0.352,-0.297 0.783,0.947 1.561,1.901 2.359,2.837 0.128,0.15 0.349,0.222 0.527,0.331 z"
           style="fill:#000000;fill-opacity:1;fill-rule:nonzero;stroke:none"
           id="path257" />
      </g>
      <g
         id="g259"
         transform="translate(117.543,85.4875)"
         style="fill:#000000">
        <path
           d="M 0,0 C -0.09,0.264 -0.17,0.498 -0.266,0.777 0.495,1.194 1.224,1.273 2.011,0.967 2.355,0.833 2.585,0.572 2.393,0.3 1.922,-0.367 2.087,-1.149 1.878,-1.855 1.826,-2.028 1.756,-2.196 1.669,-2.436 0.871,-2.079 1.123,-1.216 0.693,-0.739 0.824,-0.255 1.565,-0.043 1.278,0.61 0.7,0.812 0.578,0.141 0,0"
           style="fill:#000000;fill-opacity:1;fill-rule:nonzero;stroke:none"
           id="path261" />
      </g>
      <g
         id="g263"
         transform="translate(118.0443,89.4591)"
         style="fill:#000000">
        <path
           d="m 0,0 c -0.101,-0.284 -0.16,-0.449 -0.219,-0.615 -0.068,0.018 -0.137,0.036 -0.205,0.054 0.077,0.348 0.155,0.696 0.23,1.032 C 1.251,0.436 1.465,0.21 0.944,-0.774 0.769,-0.652 0.595,-0.543 0.437,-0.415 0.29,-0.295 0.161,-0.154 0,0"
           style="fill:#000000;fill-opacity:1;fill-rule:nonzero;stroke:none"
           id="path265" />
      </g>
      <g
         id="g267"
         transform="translate(34.8872,72.2237)"
         style="fill:#000000">
        <path
           d="M 0,0 C 0.35,-0.264 0.609,-0.46 0.846,-0.638 0.708,-1.243 0.578,-1.813 0.448,-2.382 -0.07,-1.704 -0.23,-0.956 0,0"
           style="fill:#000000;fill-opacity:1;fill-rule:nonzero;stroke:none"
           id="path269" />
      </g>
      <g
         id="g271"
         transform="translate(110.7314,66.8418)"
         style="fill:#000000">
        <path
           d="m 0,0 c -0.191,-0.457 -0.382,-0.913 -0.637,-1.523 -0.22,0.258 -0.469,0.434 -0.442,0.538 0.126,0.491 0.365,0.93 0.835,1.135 C -0.163,0.1 -0.081,0.05 0,0"
           style="fill:#000000;fill-opacity:1;fill-rule:nonzero;stroke:none"
           id="path273" />
      </g>
      <g
         id="g275"
         transform="translate(117.4688,87.7405)"
         style="fill:#000000">
        <path
           d="M 0,0 C -0.141,-0.451 -0.255,-0.815 -0.381,-1.217 -0.974,-0.586 -0.96,-0.539 0,0"
           style="fill:#000000;fill-opacity:1;fill-rule:nonzero;stroke:none"
           id="path277" />
      </g>
      <g
         id="g279"
         transform="translate(44.1125,124.5223)"
         style="fill:#000000">
        <path
           d="M 0,0 C 0.199,0.361 0.399,0.723 0.598,1.084 0.817,0.466 0.45,0.197 0.077,-0.068 Z"
           style="fill:#000000;fill-opacity:1;fill-rule:nonzero;stroke:none"
           id="path281" />
      </g>
      <g
         id="g283"
         transform="translate(120.0336,91.9894)"
         style="fill:#000000">
        <path
           d="M 0,0 C -0.015,0.321 -0.031,0.642 -0.051,1.053 0.401,0.556 0.401,0.556 0,0"
           style="fill:#000000;fill-opacity:1;fill-rule:nonzero;stroke:none"
           id="path285" />
      </g>
      <g
         id="g287"
         transform="translate(29.8885,86.4368)"
         style="fill:#000000">
        <path
           d="m 0,0 c -0.229,0.153 -0.458,0.305 -0.733,0.488 0.57,0.263 0.57,0.263 0.708,-0.513 z"
           style="fill:#000000;fill-opacity:1;fill-rule:nonzero;stroke:none"
           id="path289" />
      </g>
      <g
         id="g291"
         transform="translate(118.4554,92.0841)"
         style="fill:#000000">
        <path
           d="m 0,0 c -0.031,-0.273 -0.063,-0.546 -0.115,-0.999 -0.334,0.721 -0.334,0.721 0.14,0.976 z"
           style="fill:#000000;fill-opacity:1;fill-rule:nonzero;stroke:none"
           id="path293" />
      </g>
      <g
         id="g295"
         transform="translate(112.0658,67.5058)"
         style="fill:#000000">
        <path
           d="m 0,0 c -0.057,-0.237 -0.115,-0.474 -0.172,-0.711 -0.079,0.013 -0.157,0.027 -0.236,0.041 0.024,0.242 0.048,0.484 0.072,0.726 C -0.224,0.038 -0.112,0.019 0,0"
           style="fill:#000000;fill-opacity:1;fill-rule:nonzero;stroke:none"
           id="path297" />
      </g>
      <g
         id="g299"
         transform="translate(110.1013,68.1133)"
         style="fill:#000000">
        <path
           d="m 0,0 c -0.096,-0.197 -0.193,-0.393 -0.289,-0.59 -0.065,0.027 -0.13,0.053 -0.196,0.08 0.08,0.223 0.16,0.445 0.24,0.668 C -0.163,0.105 -0.082,0.053 0,0"
           style="fill:#000000;fill-opacity:1;fill-rule:nonzero;stroke:none"
           id="path301" />
      </g>
      <g
         id="g303"
         transform="translate(29.5226,89.4379)"
         style="fill:#000000">
        <path
           d="m 0,0 c -0.126,-0.073 -0.22,-0.171 -0.304,-0.163 -0.072,0.007 -0.186,0.139 -0.183,0.211 0.005,0.08 0.12,0.154 0.188,0.231 C -0.229,0.213 -0.158,0.147 0,0"
           style="fill:#000000;fill-opacity:1;fill-rule:nonzero;stroke:none"
           id="path305" />
      </g>
      <g
         id="g307"
         transform="translate(120.5573,87.4735)"
         style="fill:#000000">
        <path
           d="m 0,0 c -0.089,-0.12 -0.144,-0.195 -0.2,-0.271 -0.063,0.079 -0.145,0.149 -0.178,0.238 -0.015,0.039 0.077,0.169 0.109,0.165 C -0.187,0.122 -0.112,0.059 0,0"
           style="fill:#000000;fill-opacity:1;fill-rule:nonzero;stroke:none"
           id="path309" />
      </g>
      <g
         id="g311"
         transform="translate(98.6472,57.8984)"
         style="fill:#000000">
        <path
           d="m 0,0 c -0.049,-0.042 -0.094,-0.082 -0.14,-0.122 -0.035,0.052 -0.076,0.101 -0.101,0.158 -0.005,0.013 0.055,0.076 0.065,0.072 C -0.119,0.083 -0.068,0.044 0,0"
           style="fill:#000000;fill-opacity:1;fill-rule:nonzero;stroke:none"
           id="path313" />
      </g>
      <g
         id="g315"
         transform="translate(64.1029,53.1247)"
         style="fill:#000000">
        <path
           d="m 0,0 c -0.222,-0.07 -0.445,-0.14 -0.667,-0.21 -0.009,0.062 -0.019,0.123 -0.028,0.185 h 0.716 z"
           style="fill:#000000;fill-opacity:1;fill-rule:nonzero;stroke:none"
           id="path317" />
      </g>
      <g
         id="g319"
         transform="translate(113.2601,69.9863)"
         style="fill:#000000">
        <path
           d="m 0,0 c -0.051,-0.099 -0.082,-0.159 -0.113,-0.219 -0.076,0.056 -0.156,0.107 -0.222,0.173 -0.008,0.009 0.065,0.138 0.093,0.135 C -0.161,0.081 -0.083,0.034 0,0"
           style="fill:#000000;fill-opacity:1;fill-rule:nonzero;stroke:none"
           id="path321" />
      </g>
      <g
         id="g323"
         transform="translate(36.5324,68.4432)"
         style="fill:#000000">
        <path
           d="m 0,0 c -0.063,-0.007 -0.125,-0.021 -0.187,-0.016 -0.015,0.001 -0.045,0.077 -0.034,0.09 0.036,0.043 0.088,0.072 0.134,0.107 C -0.058,0.121 -0.029,0.061 0,0"
           style="fill:#000000;fill-opacity:1;fill-rule:nonzero;stroke:none"
           id="path325" />
      </g>
      <g
         id="g327"
         transform="translate(116.6066,86.1557)"
         style="fill:#000000">
        <path
           d="m 0,0 c -0.054,-0.023 -0.14,-0.078 -0.157,-0.061 -0.049,0.046 -0.07,0.122 -0.101,0.186 0.063,0.026 0.127,0.052 0.19,0.077 C -0.045,0.135 -0.023,0.068 0,0"
           style="fill:#000000;fill-opacity:1;fill-rule:nonzero;stroke:none"
           id="path329" />
      </g>
      <g
         id="g331"
         transform="translate(108.6038,113.3965)"
         style="fill:#000000">
        <path
           d="M 0,0 C 0.029,0.054 0.052,0.146 0.089,0.152 0.151,0.162 0.221,0.116 0.288,0.093 0.257,0.033 0.235,-0.07 0.193,-0.079 0.137,-0.091 0.065,-0.03 0,0"
           style="fill:#000000;fill-opacity:1;fill-rule:nonzero;stroke:none"
           id="path333" />
      </g>
      <g
         id="g335"
         transform="translate(109.8783,65.015)"
         style="fill:#000000">
        <path
           d="M 0,0 C 0.076,-0.047 0.127,-0.078 0.178,-0.11 0.125,-0.179 0.083,-0.266 0.014,-0.309 -0.018,-0.329 -0.103,-0.263 -0.164,-0.236 -0.109,-0.157 -0.054,-0.078 0,0"
           style="fill:#000000;fill-opacity:1;fill-rule:nonzero;stroke:none"
           id="path337" />
      </g>
      <g
         id="g339"
         transform="translate(118.4805,92.0614)"
         style="fill:#000000">
        <path
           d="M 0,0 C 0.02,0.086 0.04,0.171 0.023,0.098 0.064,0.162 0.019,0.092 -0.025,0.023 Z"
           style="fill:#000000;fill-opacity:1;fill-rule:nonzero;stroke:none"
           id="path341" />
      </g>
      <g
         id="g343"
         transform="translate(115.8663,84.431)"
         style="fill:#000000">
        <path
           d="M 0,0 C -0.021,0.023 -0.042,0.047 -0.063,0.07 -0.04,0.091 -0.015,0.129 0.007,0.127 0.03,0.126 0.05,0.086 0.071,0.062 0.047,0.042 0.024,0.021 0,0"
           style="fill:#000000;fill-opacity:1;fill-rule:nonzero;stroke:none"
           id="path345" />
      </g>
      <g
         id="g347"
         transform="translate(29.8633,86.4115)"
         style="fill:#000000">
        <path
           d="M 0,0 C 0.042,-0.026 0.085,-0.051 0.103,-0.063 0.089,-0.047 0.057,-0.011 0.025,0.025 Z"
           style="fill:#000000;fill-opacity:1;fill-rule:nonzero;stroke:none"
           id="path349" />
      </g>
      <g
         id="g351"
         transform="translate(89.6914,51.0977)"
         style="fill:#000000">
        <path
           d="M 0,0 C 0.007,-0.007 0.014,-0.014 0.021,-0.022 Z"
           style="fill:#000000;fill-opacity:1;fill-rule:nonzero;stroke:none"
           id="path353" />
      </g>
      <g
         id="g355"
         transform="translate(106.2188,68.0981)"
         style="fill:#000000">
        <path
           d="m 0,0 c -0.009,-0.025 -0.018,-0.05 -0.028,-0.075 0.018,0.017 0.035,0.034 0.052,0.052 z"
           style="fill:#000000;fill-opacity:1;fill-rule:nonzero;stroke:none"
           id="path357" />
      </g>
    </g>
  </g>
</svg>
